<svg xmlns="http://www.w3.org/2000/svg" width="200" height="147.138" viewBox="0 0 200 147.138"><path d="M96.633,143.771V88.247l-15.8,15.8a3.367,3.367,0,1,1-4.762-4.762L97.642,77.715a3.367,3.367,0,0,1,4.762,0l21.571,21.572a3.367,3.367,0,1,1-4.761,4.762L103.367,88.2v55.568a3.367,3.367,0,0,1-6.734,0Zm59.6-17.844h-22.9v-6.734h24.579a35.354,35.354,0,1,0-10.885-69,50.363,50.363,0,0,0-31.9-40.119A50.651,50.651,0,0,0,55.09,28.853,49.722,49.722,0,0,0,46.465,56.9c0,1.064.035,2.145.1,3.213a30.31,30.31,0,1,0-9.53,59.077h29.63v6.734H37.037a37.037,37.037,0,1,1,0-74.074c.969,0,1.947.038,2.907.113a56.06,56.06,0,0,1,5.773-20.384A57.422,57.422,0,0,1,144.5,25.226a56.152,56.152,0,0,1,7.761,16.9,42.089,42.089,0,1,1,5.655,83.8c-.564,0-1.13-.012-1.683-.033v.033h0Z"/></svg>